<mxfile host="Electron" modified="2023-11-08T13:36:52.352Z" agent="Mozilla/5.0 (Windows NT 10.0; Win64; x64) AppleWebKit/537.36 (KHTML, like Gecko) draw.io/22.0.3 Chrome/114.0.5735.289 Electron/25.8.4 Safari/537.36" etag="zslFac76kZAxqhi8tnAQ" version="22.0.3" type="device">
  <diagram name="第 1 页" id="jt6VVJo7nu8GzwiU6wVw">
    <mxGraphModel dx="2072" dy="1308" grid="0" gridSize="10" guides="1" tooltips="1" connect="1" arrows="1" fold="1" page="1" pageScale="1" pageWidth="2500" pageHeight="2200" math="0" shadow="0">
      <root>
        <mxCell id="0" />
        <mxCell id="1" parent="0" />
        <mxCell id="OvFxD7z9jxdbEy_i_qH0-7" value="座位号&lt;br&gt;金额&lt;br&gt;状态" style="rounded=0;whiteSpace=wrap;html=1;" parent="1" vertex="1">
          <mxGeometry x="136" y="617" width="254" height="79" as="geometry" />
        </mxCell>
        <mxCell id="OvFxD7z9jxdbEy_i_qH0-2" value="用户id（雪花算法）&lt;br&gt;手机号码（创建账号时指定）&lt;br&gt;用户头像&lt;br&gt;用户密码（脱敏处理）&lt;br&gt;证件类型（选择性）&lt;br&gt;证件号码（选择性）&lt;br&gt;姓名（选择性）&lt;br&gt;权限等级（1为游客，2为实名用户）" style="rounded=0;whiteSpace=wrap;html=1;" parent="1" vertex="1">
          <mxGeometry x="152" y="298" width="280" height="120" as="geometry" />
        </mxCell>
        <mxCell id="OvFxD7z9jxdbEy_i_qH0-3" value="userDB" style="text;strokeColor=none;fillColor=none;align=left;verticalAlign=middle;spacingLeft=4;spacingRight=4;overflow=hidden;points=[[0,0.5],[1,0.5]];portConstraint=eastwest;rotatable=0;whiteSpace=wrap;html=1;" parent="1" vertex="1">
          <mxGeometry x="245" y="424" width="80" height="30" as="geometry" />
        </mxCell>
        <mxCell id="OvFxD7z9jxdbEy_i_qH0-4" value="orderDB" style="text;strokeColor=none;fillColor=none;align=left;verticalAlign=middle;spacingLeft=4;spacingRight=4;overflow=hidden;points=[[0,0.5],[1,0.5]];portConstraint=eastwest;rotatable=0;whiteSpace=wrap;html=1;" parent="1" vertex="1">
          <mxGeometry x="238.5" y="577" width="80" height="30" as="geometry" />
        </mxCell>
        <mxCell id="OvFxD7z9jxdbEy_i_qH0-5" value="订单号（雪花算法）&lt;br&gt;身份证号码&lt;br&gt;车次id&lt;br&gt;车座&lt;br&gt;支付单号id&lt;br&gt;下单时间" style="rounded=0;whiteSpace=wrap;html=1;" parent="1" vertex="1">
          <mxGeometry x="182" y="470" width="193" height="98" as="geometry" />
        </mxCell>
        <mxCell id="OvFxD7z9jxdbEy_i_qH0-6" value="seat_(car _id)_(date)" style="text;strokeColor=none;fillColor=none;align=left;verticalAlign=middle;spacingLeft=4;spacingRight=4;overflow=hidden;points=[[0,0.5],[1,0.5]];portConstraint=eastwest;rotatable=0;whiteSpace=wrap;html=1;rounded=1;" parent="1" vertex="1">
          <mxGeometry x="186" y="716" width="159" height="30" as="geometry" />
        </mxCell>
        <mxCell id="OvFxD7z9jxdbEy_i_qH0-8" value="payDB&lt;br&gt;" style="text;strokeColor=none;fillColor=none;align=left;verticalAlign=middle;spacingLeft=4;spacingRight=4;overflow=hidden;points=[[0,0.5],[1,0.5]];portConstraint=eastwest;rotatable=0;whiteSpace=wrap;html=1;" parent="1" vertex="1">
          <mxGeometry x="234" y="1263" width="80" height="30" as="geometry" />
        </mxCell>
        <mxCell id="OvFxD7z9jxdbEy_i_qH0-9" value="支付单号（雪花算法）&lt;br&gt;支付方式&lt;br&gt;支付状态&lt;br&gt;金额&lt;br&gt;&amp;nbsp;支付时间" style="rounded=0;whiteSpace=wrap;html=1;" parent="1" vertex="1">
          <mxGeometry x="186" y="1159" width="165" height="100" as="geometry" />
        </mxCell>
        <mxCell id="OvFxD7z9jxdbEy_i_qH0-16" value="车次id（雪花算法）&lt;br&gt;途径（-xx-xx-xx）&lt;br&gt;总座位&lt;br&gt;空余数&lt;br&gt;是否开启" style="rounded=0;whiteSpace=wrap;html=1;" parent="1" vertex="1">
          <mxGeometry x="34" y="848" width="120" height="79.5" as="geometry" />
        </mxCell>
        <mxCell id="-K4Pnvhbvs1OvobaiyWg-1" value="" style="endArrow=classic;html=1;rounded=0;exitX=1;exitY=0.25;exitDx=0;exitDy=0;entryX=0;entryY=0.5;entryDx=0;entryDy=0;" parent="1" source="OvFxD7z9jxdbEy_i_qH0-16" target="OvFxD7z9jxdbEy_i_qH0-6" edge="1">
          <mxGeometry width="50" height="50" relative="1" as="geometry">
            <mxPoint x="325" y="1074" as="sourcePoint" />
            <mxPoint x="375" y="1024" as="targetPoint" />
          </mxGeometry>
        </mxCell>
        <mxCell id="-K4Pnvhbvs1OvobaiyWg-2" value="途径站&lt;br&gt;预计到达时间&lt;br&gt;实际到站时间" style="rounded=0;whiteSpace=wrap;html=1;" parent="1" vertex="1">
          <mxGeometry x="188" y="993" width="241" height="79" as="geometry" />
        </mxCell>
        <mxCell id="-K4Pnvhbvs1OvobaiyWg-4" value="time_(car_id)_(date)" style="text;strokeColor=none;fillColor=none;align=left;verticalAlign=middle;spacingLeft=4;spacingRight=4;overflow=hidden;points=[[0,0.5],[1,0.5]];portConstraint=eastwest;rotatable=0;whiteSpace=wrap;html=1;" parent="1" vertex="1">
          <mxGeometry x="221.5" y="1087" width="141" height="30" as="geometry" />
        </mxCell>
        <mxCell id="-K4Pnvhbvs1OvobaiyWg-5" value="car" style="text;strokeColor=none;fillColor=none;align=left;verticalAlign=middle;spacingLeft=4;spacingRight=4;overflow=hidden;points=[[0,0.5],[1,0.5]];portConstraint=eastwest;rotatable=0;whiteSpace=wrap;html=1;" parent="1" vertex="1">
          <mxGeometry x="54" y="936" width="80" height="30" as="geometry" />
        </mxCell>
        <mxCell id="-K4Pnvhbvs1OvobaiyWg-6" value="" style="endArrow=classic;html=1;rounded=0;entryX=0;entryY=0.5;entryDx=0;entryDy=0;exitX=1;exitY=0.5;exitDx=0;exitDy=0;" parent="1" source="OvFxD7z9jxdbEy_i_qH0-16" target="-K4Pnvhbvs1OvobaiyWg-4" edge="1">
          <mxGeometry width="50" height="50" relative="1" as="geometry">
            <mxPoint x="287" y="843" as="sourcePoint" />
            <mxPoint x="337" y="793" as="targetPoint" />
          </mxGeometry>
        </mxCell>
        <mxCell id="-K4Pnvhbvs1OvobaiyWg-11" value="user" style="shape=cylinder3;whiteSpace=wrap;html=1;boundedLbl=1;backgroundOutline=1;size=15;" parent="1" vertex="1">
          <mxGeometry x="570.5" y="435" width="60" height="80" as="geometry" />
        </mxCell>
        <mxCell id="-K4Pnvhbvs1OvobaiyWg-16" value="" style="strokeWidth=2;html=1;shape=mxgraph.flowchart.annotation_2;align=left;labelPosition=right;pointerEvents=1;" parent="1" vertex="1">
          <mxGeometry x="630.5" y="399" width="103" height="149" as="geometry" />
        </mxCell>
        <mxCell id="-K4Pnvhbvs1OvobaiyWg-17" value="&lt;div style=&quot;text-align: left;&quot;&gt;&lt;span style=&quot;background-color: initial;&quot;&gt;创建账户&lt;/span&gt;&lt;/div&gt;&lt;div style=&quot;text-align: left;&quot;&gt;&lt;span style=&quot;background-color: initial;&quot;&gt;修改密码&lt;/span&gt;&lt;/div&gt;&lt;div style=&quot;text-align: left;&quot;&gt;&lt;span style=&quot;background-color: initial;&quot;&gt;实名制&lt;/span&gt;&lt;/div&gt;&lt;div style=&quot;text-align: left;&quot;&gt;修改头像&lt;/div&gt;&lt;div style=&quot;text-align: left;&quot;&gt;解除实名&lt;/div&gt;&lt;div style=&quot;text-align: left;&quot;&gt;查询信息&lt;/div&gt;&lt;div style=&quot;text-align: left;&quot;&gt;鉴权&lt;/div&gt;" style="text;html=1;strokeColor=none;fillColor=none;align=center;verticalAlign=middle;whiteSpace=wrap;rounded=0;" parent="1" vertex="1">
          <mxGeometry x="682.5" y="401" width="106" height="146" as="geometry" />
        </mxCell>
        <mxCell id="-K4Pnvhbvs1OvobaiyWg-19" value="order" style="shape=cylinder3;whiteSpace=wrap;html=1;boundedLbl=1;backgroundOutline=1;size=15;" parent="1" vertex="1">
          <mxGeometry x="570.5" y="603" width="60" height="80" as="geometry" />
        </mxCell>
        <mxCell id="-K4Pnvhbvs1OvobaiyWg-21" value="&lt;div style=&quot;text-align: left;&quot;&gt;创建订单&lt;/div&gt;&lt;div style=&quot;text-align: left;&quot;&gt;查询订单&lt;/div&gt;&lt;div style=&quot;text-align: left;&quot;&gt;支付订单&lt;/div&gt;&lt;div style=&quot;text-align: left;&quot;&gt;改签&lt;/div&gt;" style="text;html=1;strokeColor=none;fillColor=none;align=center;verticalAlign=middle;whiteSpace=wrap;rounded=0;" parent="1" vertex="1">
          <mxGeometry x="682.5" y="569" width="106" height="146" as="geometry" />
        </mxCell>
        <mxCell id="-K4Pnvhbvs1OvobaiyWg-23" value="car" style="shape=cylinder3;whiteSpace=wrap;html=1;boundedLbl=1;backgroundOutline=1;size=15;" parent="1" vertex="1">
          <mxGeometry x="606" y="953.75" width="60" height="80" as="geometry" />
        </mxCell>
        <mxCell id="-K4Pnvhbvs1OvobaiyWg-24" value="" style="strokeWidth=2;html=1;shape=mxgraph.flowchart.annotation_2;align=left;labelPosition=right;pointerEvents=1;" parent="1" vertex="1">
          <mxGeometry x="666" y="917.75" width="103" height="149" as="geometry" />
        </mxCell>
        <mxCell id="-K4Pnvhbvs1OvobaiyWg-25" value="&lt;div style=&quot;text-align: left;&quot;&gt;创建车次&lt;/div&gt;&lt;div style=&quot;text-align: left;&quot;&gt;卖座&lt;/div&gt;&lt;div style=&quot;text-align: left;&quot;&gt;开启车次&lt;/div&gt;&lt;div style=&quot;text-align: left;&quot;&gt;查询&lt;/div&gt;" style="text;html=1;strokeColor=none;fillColor=none;align=center;verticalAlign=middle;whiteSpace=wrap;rounded=0;" parent="1" vertex="1">
          <mxGeometry x="718" y="919.75" width="106" height="146" as="geometry" />
        </mxCell>
        <mxCell id="-K4Pnvhbvs1OvobaiyWg-26" value="seat_(car _id)_(date)" style="shape=cylinder3;whiteSpace=wrap;html=1;boundedLbl=1;backgroundOutline=1;size=15;" parent="1" vertex="1">
          <mxGeometry x="516" y="745.75" width="128.5" height="136" as="geometry" />
        </mxCell>
        <mxCell id="-K4Pnvhbvs1OvobaiyWg-27" value="" style="strokeWidth=2;html=1;shape=mxgraph.flowchart.annotation_2;align=left;labelPosition=right;pointerEvents=1;" parent="1" vertex="1">
          <mxGeometry x="644.5" y="733.75" width="103" height="149" as="geometry" />
        </mxCell>
        <mxCell id="-K4Pnvhbvs1OvobaiyWg-28" value="&lt;div style=&quot;text-align: left;&quot;&gt;卖座&lt;/div&gt;&lt;div style=&quot;text-align: left;&quot;&gt;创建座位&lt;/div&gt;&lt;div style=&quot;text-align: left;&quot;&gt;查询&lt;/div&gt;" style="text;html=1;strokeColor=none;fillColor=none;align=center;verticalAlign=middle;whiteSpace=wrap;rounded=0;" parent="1" vertex="1">
          <mxGeometry x="696.5" y="735.75" width="106" height="146" as="geometry" />
        </mxCell>
        <mxCell id="-K4Pnvhbvs1OvobaiyWg-30" value="time_(car_id)_(date)" style="shape=cylinder3;whiteSpace=wrap;html=1;boundedLbl=1;backgroundOutline=1;size=15;" parent="1" vertex="1">
          <mxGeometry x="537.5" y="1090.75" width="128.5" height="136" as="geometry" />
        </mxCell>
        <mxCell id="-K4Pnvhbvs1OvobaiyWg-31" value="" style="strokeWidth=2;html=1;shape=mxgraph.flowchart.annotation_2;align=left;labelPosition=right;pointerEvents=1;" parent="1" vertex="1">
          <mxGeometry x="666" y="1078.75" width="103" height="149" as="geometry" />
        </mxCell>
        <mxCell id="-K4Pnvhbvs1OvobaiyWg-32" value="&lt;div style=&quot;text-align: left;&quot;&gt;查询站点信息&lt;/div&gt;&lt;div style=&quot;text-align: left;&quot;&gt;到站计时&lt;/div&gt;&lt;div style=&quot;text-align: left;&quot;&gt;查询&lt;/div&gt;" style="text;html=1;strokeColor=none;fillColor=none;align=center;verticalAlign=middle;whiteSpace=wrap;rounded=0;" parent="1" vertex="1">
          <mxGeometry x="718" y="1080.75" width="106" height="146" as="geometry" />
        </mxCell>
        <mxCell id="-K4Pnvhbvs1OvobaiyWg-36" value="pay" style="shape=cylinder3;whiteSpace=wrap;html=1;boundedLbl=1;backgroundOutline=1;size=15;" parent="1" vertex="1">
          <mxGeometry x="559" y="1281.75" width="60" height="80" as="geometry" />
        </mxCell>
        <mxCell id="-K4Pnvhbvs1OvobaiyWg-37" value="" style="strokeWidth=2;html=1;shape=mxgraph.flowchart.annotation_2;align=left;labelPosition=right;pointerEvents=1;" parent="1" vertex="1">
          <mxGeometry x="619" y="1245.75" width="103" height="149" as="geometry" />
        </mxCell>
        <mxCell id="-K4Pnvhbvs1OvobaiyWg-38" value="&lt;div style=&quot;text-align: left;&quot;&gt;创建付单&lt;/div&gt;&lt;div style=&quot;text-align: left;&quot;&gt;支付&lt;/div&gt;&lt;div style=&quot;text-align: left;&quot;&gt;退款&lt;/div&gt;&lt;div style=&quot;text-align: left;&quot;&gt;查询&lt;/div&gt;&lt;div style=&quot;text-align: left;&quot;&gt;订单作废&lt;/div&gt;" style="text;html=1;strokeColor=none;fillColor=none;align=center;verticalAlign=middle;whiteSpace=wrap;rounded=0;" parent="1" vertex="1">
          <mxGeometry x="671" y="1247.75" width="106" height="146" as="geometry" />
        </mxCell>
        <mxCell id="-K4Pnvhbvs1OvobaiyWg-42" value="user" style="swimlane;horizontal=0;whiteSpace=wrap;html=1;" parent="1" vertex="1">
          <mxGeometry x="533.5" y="390" width="269" height="171" as="geometry" />
        </mxCell>
        <mxCell id="-K4Pnvhbvs1OvobaiyWg-43" value="order" style="swimlane;horizontal=0;whiteSpace=wrap;html=1;" parent="-K4Pnvhbvs1OvobaiyWg-42" vertex="1">
          <mxGeometry x="-5" y="172" width="271" height="165" as="geometry" />
        </mxCell>
        <mxCell id="-K4Pnvhbvs1OvobaiyWg-20" value="" style="strokeWidth=2;html=1;shape=mxgraph.flowchart.annotation_2;align=left;labelPosition=right;pointerEvents=1;" parent="-K4Pnvhbvs1OvobaiyWg-43" vertex="1">
          <mxGeometry x="113" width="103" height="149" as="geometry" />
        </mxCell>
        <mxCell id="-K4Pnvhbvs1OvobaiyWg-45" value="seat" style="swimlane;horizontal=0;whiteSpace=wrap;html=1;" parent="1" vertex="1">
          <mxGeometry x="482" y="728" width="342" height="172" as="geometry" />
        </mxCell>
        <mxCell id="-K4Pnvhbvs1OvobaiyWg-46" value="car" style="swimlane;horizontal=0;whiteSpace=wrap;html=1;" parent="1" vertex="1">
          <mxGeometry x="478" y="903.75" width="357" height="175" as="geometry" />
        </mxCell>
        <mxCell id="-K4Pnvhbvs1OvobaiyWg-47" value="time" style="swimlane;horizontal=0;whiteSpace=wrap;html=1;" parent="1" vertex="1">
          <mxGeometry x="492" y="1077" width="343" height="161" as="geometry" />
        </mxCell>
        <mxCell id="-K4Pnvhbvs1OvobaiyWg-48" value="pay" style="swimlane;horizontal=0;whiteSpace=wrap;html=1;startSize=23;" parent="-K4Pnvhbvs1OvobaiyWg-47" vertex="1">
          <mxGeometry y="168.75" width="340" height="178.25" as="geometry" />
        </mxCell>
        <mxCell id="-K4Pnvhbvs1OvobaiyWg-50" value="Buy Tickets" style="swimlane;horizontal=0;whiteSpace=wrap;html=1;startSize=23;" parent="1" vertex="1">
          <mxGeometry x="916" y="713" width="481" height="497" as="geometry">
            <mxRectangle x="930" y="19" width="32" height="96" as="alternateBounds" />
          </mxGeometry>
        </mxCell>
        <mxCell id="-K4Pnvhbvs1OvobaiyWg-51" value="order" style="shape=cube;whiteSpace=wrap;html=1;boundedLbl=1;backgroundOutline=1;darkOpacity=0.05;darkOpacity2=0.1;" parent="-K4Pnvhbvs1OvobaiyWg-50" vertex="1">
          <mxGeometry x="74" y="46" width="120" height="65" as="geometry" />
        </mxCell>
        <mxCell id="-K4Pnvhbvs1OvobaiyWg-53" value="car" style="shape=cube;whiteSpace=wrap;html=1;boundedLbl=1;backgroundOutline=1;darkOpacity=0.05;darkOpacity2=0.1;" parent="-K4Pnvhbvs1OvobaiyWg-50" vertex="1">
          <mxGeometry x="77" y="150" width="120" height="67" as="geometry" />
        </mxCell>
        <mxCell id="-K4Pnvhbvs1OvobaiyWg-54" value="pay" style="shape=cube;whiteSpace=wrap;html=1;boundedLbl=1;backgroundOutline=1;darkOpacity=0.05;darkOpacity2=0.1;" parent="-K4Pnvhbvs1OvobaiyWg-50" vertex="1">
          <mxGeometry x="77" y="425" width="120" height="62" as="geometry" />
        </mxCell>
        <mxCell id="-K4Pnvhbvs1OvobaiyWg-55" value="" style="strokeWidth=2;html=1;shape=mxgraph.flowchart.annotation_2;align=left;labelPosition=right;pointerEvents=1;rotation=-180;" parent="-K4Pnvhbvs1OvobaiyWg-50" vertex="1">
          <mxGeometry x="213" y="71" width="50" height="414" as="geometry" />
        </mxCell>
        <mxCell id="-K4Pnvhbvs1OvobaiyWg-56" value="" style="strokeWidth=2;html=1;shape=mxgraph.flowchart.annotation_2;align=left;labelPosition=right;pointerEvents=1;" parent="-K4Pnvhbvs1OvobaiyWg-50" vertex="1">
          <mxGeometry x="263" y="73" width="50" height="410" as="geometry" />
        </mxCell>
        <mxCell id="-K4Pnvhbvs1OvobaiyWg-59" value="购票&lt;br&gt;&lt;div style=&quot;&quot;&gt;&lt;span style=&quot;background-color: initial;&quot;&gt;查票&lt;/span&gt;&lt;/div&gt;&lt;div style=&quot;&quot;&gt;&lt;span style=&quot;background-color: initial;&quot;&gt;退票&lt;/span&gt;&lt;/div&gt;&lt;div style=&quot;&quot;&gt;&lt;span style=&quot;background-color: initial;&quot;&gt;改签&lt;/span&gt;&lt;/div&gt;&lt;div style=&quot;&quot;&gt;&lt;span style=&quot;background-color: initial;&quot;&gt;支付&lt;/span&gt;&lt;/div&gt;&lt;div style=&quot;&quot;&gt;&lt;span style=&quot;background-color: initial;&quot;&gt;退款&lt;/span&gt;&lt;/div&gt;&lt;div style=&quot;&quot;&gt;&lt;span style=&quot;background-color: initial;&quot;&gt;查询列车时间表&lt;/span&gt;&lt;/div&gt;&lt;div style=&quot;&quot;&gt;&lt;span style=&quot;background-color: initial;&quot;&gt;查询订单&lt;/span&gt;&lt;/div&gt;&lt;div style=&quot;&quot;&gt;&lt;span style=&quot;background-color: initial;&quot;&gt;增加车次&lt;/span&gt;&lt;/div&gt;&lt;div style=&quot;&quot;&gt;&lt;span style=&quot;background-color: initial;&quot;&gt;设置车座及其价格&lt;/span&gt;&lt;/div&gt;&lt;div style=&quot;&quot;&gt;&lt;span style=&quot;background-color: initial;&quot;&gt;记录车辆站点信息&lt;/span&gt;&lt;/div&gt;" style="text;html=1;strokeColor=none;fillColor=none;align=left;verticalAlign=middle;whiteSpace=wrap;rounded=0;" parent="-K4Pnvhbvs1OvobaiyWg-50" vertex="1">
          <mxGeometry x="296" y="77.5" width="185" height="402.5" as="geometry" />
        </mxCell>
        <mxCell id="-K4Pnvhbvs1OvobaiyWg-78" value="seat_(car _id)_(date)" style="shape=cube;whiteSpace=wrap;html=1;boundedLbl=1;backgroundOutline=1;darkOpacity=0.05;darkOpacity2=0.1;" parent="-K4Pnvhbvs1OvobaiyWg-50" vertex="1">
          <mxGeometry x="64" y="245" width="149" height="75" as="geometry" />
        </mxCell>
        <mxCell id="-K4Pnvhbvs1OvobaiyWg-114" value="time_(car_id)_(date)" style="shape=cube;whiteSpace=wrap;html=1;boundedLbl=1;backgroundOutline=1;darkOpacity=0.05;darkOpacity2=0.1;" parent="-K4Pnvhbvs1OvobaiyWg-50" vertex="1">
          <mxGeometry x="58.5" y="336" width="160" height="75" as="geometry" />
        </mxCell>
        <mxCell id="-K4Pnvhbvs1OvobaiyWg-60" value="通知日期&lt;br&gt;通知内容&lt;br&gt;是否成功通知" style="rounded=0;whiteSpace=wrap;html=1;" parent="1" vertex="1">
          <mxGeometry x="160" y="1371" width="206" height="98" as="geometry" />
        </mxCell>
        <mxCell id="-K4Pnvhbvs1OvobaiyWg-61" value="SMS_info" style="text;strokeColor=none;fillColor=none;align=left;verticalAlign=middle;spacingLeft=4;spacingRight=4;overflow=hidden;points=[[0,0.5],[1,0.5]];portConstraint=eastwest;rotatable=0;whiteSpace=wrap;html=1;" parent="1" vertex="1">
          <mxGeometry x="219" y="1476" width="80" height="30" as="geometry" />
        </mxCell>
        <mxCell id="-K4Pnvhbvs1OvobaiyWg-63" value="SMS" style="swimlane;horizontal=0;whiteSpace=wrap;html=1;" parent="1" vertex="1">
          <mxGeometry x="492" y="1440" width="343" height="180" as="geometry" />
        </mxCell>
        <mxCell id="-K4Pnvhbvs1OvobaiyWg-64" value="sms_info" style="shape=cylinder3;whiteSpace=wrap;html=1;boundedLbl=1;backgroundOutline=1;size=15;" parent="-K4Pnvhbvs1OvobaiyWg-63" vertex="1">
          <mxGeometry x="51" y="51.5" width="60" height="80" as="geometry" />
        </mxCell>
        <mxCell id="-K4Pnvhbvs1OvobaiyWg-65" value="" style="strokeWidth=2;html=1;shape=mxgraph.flowchart.annotation_2;align=left;labelPosition=right;pointerEvents=1;" parent="-K4Pnvhbvs1OvobaiyWg-63" vertex="1">
          <mxGeometry x="111" y="15.5" width="103" height="149" as="geometry" />
        </mxCell>
        <mxCell id="-K4Pnvhbvs1OvobaiyWg-66" value="下单成功，短信通知&lt;br&gt;退款成功，短信通知&lt;br&gt;改签成功，短信通知" style="text;strokeColor=none;fillColor=none;align=left;verticalAlign=middle;spacingLeft=4;spacingRight=4;overflow=hidden;points=[[0,0.5],[1,0.5]];portConstraint=eastwest;rotatable=0;whiteSpace=wrap;html=1;" parent="-K4Pnvhbvs1OvobaiyWg-63" vertex="1">
          <mxGeometry x="171" y="19" width="162" height="138" as="geometry" />
        </mxCell>
        <mxCell id="-K4Pnvhbvs1OvobaiyWg-68" value="account" style="swimlane;horizontal=0;whiteSpace=wrap;html=1;" parent="1" vertex="1">
          <mxGeometry x="1494" y="54" width="416" height="456" as="geometry" />
        </mxCell>
        <mxCell id="-K4Pnvhbvs1OvobaiyWg-69" value="Buy Tickets" style="shape=cube;whiteSpace=wrap;html=1;boundedLbl=1;backgroundOutline=1;darkOpacity=0.05;darkOpacity2=0.1;" parent="-K4Pnvhbvs1OvobaiyWg-68" vertex="1">
          <mxGeometry x="74" y="46" width="120" height="65" as="geometry" />
        </mxCell>
        <mxCell id="-K4Pnvhbvs1OvobaiyWg-73" value="" style="strokeWidth=2;html=1;shape=mxgraph.flowchart.annotation_2;align=left;labelPosition=right;pointerEvents=1;rotation=-180;" parent="-K4Pnvhbvs1OvobaiyWg-68" vertex="1">
          <mxGeometry x="213" y="71" width="50" height="369" as="geometry" />
        </mxCell>
        <mxCell id="-K4Pnvhbvs1OvobaiyWg-74" value="" style="strokeWidth=2;html=1;shape=mxgraph.flowchart.annotation_2;align=left;labelPosition=right;pointerEvents=1;" parent="-K4Pnvhbvs1OvobaiyWg-68" vertex="1">
          <mxGeometry x="263" y="73" width="50" height="365" as="geometry" />
        </mxCell>
        <mxCell id="-K4Pnvhbvs1OvobaiyWg-75" value="创建账户&lt;br&gt;修改密码&lt;br&gt;实名&lt;br&gt;修改头像&lt;br&gt;解除实名&lt;br&gt;查询信息&lt;br&gt;购票&lt;br&gt;&lt;div style=&quot;&quot;&gt;&lt;span style=&quot;background-color: initial;&quot;&gt;查票&lt;/span&gt;&lt;/div&gt;&lt;div style=&quot;&quot;&gt;&lt;span style=&quot;background-color: initial;&quot;&gt;退票&lt;/span&gt;&lt;/div&gt;&lt;div style=&quot;&quot;&gt;&lt;span style=&quot;background-color: initial;&quot;&gt;改签&lt;/span&gt;&lt;/div&gt;&lt;div style=&quot;&quot;&gt;&lt;span style=&quot;background-color: initial;&quot;&gt;支付&lt;/span&gt;&lt;/div&gt;&lt;div style=&quot;&quot;&gt;&lt;span style=&quot;background-color: initial;&quot;&gt;退款&lt;/span&gt;&lt;/div&gt;&lt;div style=&quot;&quot;&gt;&lt;span style=&quot;background-color: initial;&quot;&gt;查询列车时间表&lt;/span&gt;&lt;/div&gt;&lt;div style=&quot;&quot;&gt;&lt;span style=&quot;background-color: initial;&quot;&gt;查询订单&lt;/span&gt;&lt;/div&gt;" style="text;html=1;strokeColor=none;fillColor=none;align=left;verticalAlign=middle;whiteSpace=wrap;rounded=0;" parent="-K4Pnvhbvs1OvobaiyWg-68" vertex="1">
          <mxGeometry x="296" y="77.5" width="185" height="356" as="geometry" />
        </mxCell>
        <mxCell id="-K4Pnvhbvs1OvobaiyWg-76" value="user" style="shape=cube;whiteSpace=wrap;html=1;boundedLbl=1;backgroundOutline=1;darkOpacity=0.05;darkOpacity2=0.1;" parent="-K4Pnvhbvs1OvobaiyWg-68" vertex="1">
          <mxGeometry x="71" y="369.5" width="120" height="59.5" as="geometry" />
        </mxCell>
        <mxCell id="-K4Pnvhbvs1OvobaiyWg-95" value="sms·" style="shape=cube;whiteSpace=wrap;html=1;boundedLbl=1;backgroundOutline=1;darkOpacity=0.05;darkOpacity2=0.1;" parent="-K4Pnvhbvs1OvobaiyWg-68" vertex="1">
          <mxGeometry x="76" y="200" width="120" height="80" as="geometry" />
        </mxCell>
        <mxCell id="-K4Pnvhbvs1OvobaiyWg-96" value="waiter" style="swimlane;horizontal=0;whiteSpace=wrap;html=1;startSize=23;" parent="1" vertex="1">
          <mxGeometry x="1490" y="581" width="434" height="426" as="geometry" />
        </mxCell>
        <mxCell id="-K4Pnvhbvs1OvobaiyWg-105" value="查询车次&lt;br&gt;查询用户信息&lt;br&gt;为用户购票&lt;br&gt;为用户改签&lt;br&gt;为用户退票&lt;br&gt;让用户付款" style="text;html=1;strokeColor=none;fillColor=none;align=left;verticalAlign=middle;whiteSpace=wrap;rounded=0;" parent="-K4Pnvhbvs1OvobaiyWg-96" vertex="1">
          <mxGeometry x="280" y="53" width="94" height="353" as="geometry" />
        </mxCell>
        <mxCell id="-K4Pnvhbvs1OvobaiyWg-98" value="Buy Tickets" style="shape=cube;whiteSpace=wrap;html=1;boundedLbl=1;backgroundOutline=1;darkOpacity=0.05;darkOpacity2=0.1;" parent="-K4Pnvhbvs1OvobaiyWg-96" vertex="1">
          <mxGeometry x="75" y="197" width="120" height="65" as="geometry" />
        </mxCell>
        <mxCell id="-K4Pnvhbvs1OvobaiyWg-99" value="" style="strokeWidth=2;html=1;shape=mxgraph.flowchart.annotation_2;align=left;labelPosition=right;pointerEvents=1;rotation=-180;" parent="1" vertex="1">
          <mxGeometry x="1689" y="628" width="50" height="369" as="geometry" />
        </mxCell>
        <mxCell id="-K4Pnvhbvs1OvobaiyWg-100" value="" style="strokeWidth=2;html=1;shape=mxgraph.flowchart.annotation_2;align=left;labelPosition=right;pointerEvents=1;" parent="1" vertex="1">
          <mxGeometry x="1739" y="630" width="50" height="365" as="geometry" />
        </mxCell>
        <mxCell id="-K4Pnvhbvs1OvobaiyWg-106" value="Buy Tickets" style="swimlane;horizontal=0;whiteSpace=wrap;html=1;startSize=23;" parent="1" vertex="1">
          <mxGeometry x="1483" y="1493" width="434" height="332" as="geometry" />
        </mxCell>
        <mxCell id="-K4Pnvhbvs1OvobaiyWg-107" value="服务员一切功能&lt;br&gt;增加车次&lt;br&gt;设置车座以及价格" style="text;html=1;strokeColor=none;fillColor=none;align=left;verticalAlign=middle;whiteSpace=wrap;rounded=0;" parent="-K4Pnvhbvs1OvobaiyWg-106" vertex="1">
          <mxGeometry x="280" y="53" width="142" height="353" as="geometry" />
        </mxCell>
        <mxCell id="-K4Pnvhbvs1OvobaiyWg-122" value="Buy Tickets" style="shape=cube;whiteSpace=wrap;html=1;boundedLbl=1;backgroundOutline=1;darkOpacity=0.05;darkOpacity2=0.1;" parent="-K4Pnvhbvs1OvobaiyWg-106" vertex="1">
          <mxGeometry x="77" y="133.5" width="120" height="65" as="geometry" />
        </mxCell>
        <mxCell id="-K4Pnvhbvs1OvobaiyWg-109" value="" style="strokeWidth=2;html=1;shape=mxgraph.flowchart.annotation_2;align=left;labelPosition=right;pointerEvents=1;rotation=-180;" parent="1" vertex="1">
          <mxGeometry x="1682" y="1527" width="50" height="288" as="geometry" />
        </mxCell>
        <mxCell id="-K4Pnvhbvs1OvobaiyWg-110" value="" style="strokeWidth=2;html=1;shape=mxgraph.flowchart.annotation_2;align=left;labelPosition=right;pointerEvents=1;" parent="1" vertex="1">
          <mxGeometry x="1732" y="1528" width="50" height="285" as="geometry" />
        </mxCell>
        <mxCell id="-K4Pnvhbvs1OvobaiyWg-117" value="steward" style="swimlane;horizontal=0;whiteSpace=wrap;html=1;startSize=23;" parent="1" vertex="1">
          <mxGeometry x="1477" y="1046" width="434" height="426" as="geometry" />
        </mxCell>
        <mxCell id="-K4Pnvhbvs1OvobaiyWg-118" value="查询车次&lt;br&gt;查看用户信息&lt;br&gt;为用户改签&lt;br&gt;记录车辆站点信息" style="text;html=1;strokeColor=none;fillColor=none;align=left;verticalAlign=middle;whiteSpace=wrap;rounded=0;" parent="-K4Pnvhbvs1OvobaiyWg-117" vertex="1">
          <mxGeometry x="280" y="53" width="106" height="353" as="geometry" />
        </mxCell>
        <mxCell id="-K4Pnvhbvs1OvobaiyWg-119" value="Buy Tickets" style="shape=cube;whiteSpace=wrap;html=1;boundedLbl=1;backgroundOutline=1;darkOpacity=0.05;darkOpacity2=0.1;" parent="-K4Pnvhbvs1OvobaiyWg-117" vertex="1">
          <mxGeometry x="75" y="197" width="120" height="65" as="geometry" />
        </mxCell>
        <mxCell id="-K4Pnvhbvs1OvobaiyWg-120" value="" style="strokeWidth=2;html=1;shape=mxgraph.flowchart.annotation_2;align=left;labelPosition=right;pointerEvents=1;rotation=-180;" parent="1" vertex="1">
          <mxGeometry x="1676" y="1093" width="50" height="369" as="geometry" />
        </mxCell>
        <mxCell id="-K4Pnvhbvs1OvobaiyWg-121" value="" style="strokeWidth=2;html=1;shape=mxgraph.flowchart.annotation_2;align=left;labelPosition=right;pointerEvents=1;" parent="1" vertex="1">
          <mxGeometry x="1726" y="1095" width="50" height="365" as="geometry" />
        </mxCell>
        <mxCell id="-K4Pnvhbvs1OvobaiyWg-123" value="" style="strokeWidth=2;html=1;shape=mxgraph.flowchart.annotation_2;align=left;labelPosition=right;pointerEvents=1;rotation=-90;" parent="1" vertex="1">
          <mxGeometry x="889.5" y="1430" width="50" height="873" as="geometry" />
        </mxCell>
        <mxCell id="-K4Pnvhbvs1OvobaiyWg-124" value="&lt;b&gt;&lt;font style=&quot;font-size: 27px;&quot;&gt;Seate&lt;/font&gt;&lt;/b&gt;" style="text;html=1;strokeColor=none;fillColor=none;align=center;verticalAlign=middle;whiteSpace=wrap;rounded=0;" parent="1" vertex="1">
          <mxGeometry x="797" y="1910.5" width="226" height="108" as="geometry" />
        </mxCell>
        <mxCell id="-K4Pnvhbvs1OvobaiyWg-125" value="gateway" style="swimlane;horizontal=0;whiteSpace=wrap;html=1;" parent="1" vertex="1">
          <mxGeometry x="2029" y="59" width="318" height="1762" as="geometry" />
        </mxCell>
        <mxCell id="-K4Pnvhbvs1OvobaiyWg-92" value="user" style="shape=cube;whiteSpace=wrap;html=1;boundedLbl=1;backgroundOutline=1;darkOpacity=0.05;darkOpacity2=0.1;" parent="-K4Pnvhbvs1OvobaiyWg-125" vertex="1">
          <mxGeometry x="36" y="845" width="120" height="80" as="geometry" />
        </mxCell>
        <mxCell id="-K4Pnvhbvs1OvobaiyWg-93" value="" style="strokeWidth=2;html=1;shape=mxgraph.flowchart.annotation_2;align=left;labelPosition=right;pointerEvents=1;" parent="-K4Pnvhbvs1OvobaiyWg-125" vertex="1">
          <mxGeometry x="161" y="839" width="50" height="100" as="geometry" />
        </mxCell>
        <mxCell id="-K4Pnvhbvs1OvobaiyWg-94" value="鉴权" style="text;html=1;strokeColor=none;fillColor=none;align=center;verticalAlign=middle;whiteSpace=wrap;rounded=0;" parent="-K4Pnvhbvs1OvobaiyWg-125" vertex="1">
          <mxGeometry x="187" y="874" width="60" height="30" as="geometry" />
        </mxCell>
        <mxCell id="-K4Pnvhbvs1OvobaiyWg-127" value="" style="strokeWidth=2;html=1;shape=mxgraph.flowchart.annotation_2;align=left;labelPosition=right;pointerEvents=1;rotation=-90;" parent="1" vertex="1">
          <mxGeometry x="1676" y="1678" width="50" height="487" as="geometry" />
        </mxCell>
        <mxCell id="-K4Pnvhbvs1OvobaiyWg-128" value="&lt;b&gt;&lt;font style=&quot;font-size: 27px;&quot;&gt;sentinel&lt;/font&gt;&lt;/b&gt;" style="text;html=1;strokeColor=none;fillColor=none;align=center;verticalAlign=middle;whiteSpace=wrap;rounded=0;" parent="1" vertex="1">
          <mxGeometry x="1589" y="1972" width="226" height="99" as="geometry" />
        </mxCell>
        <mxCell id="-K4Pnvhbvs1OvobaiyWg-129" value="" style="strokeWidth=2;html=1;shape=mxgraph.flowchart.annotation_2;align=left;labelPosition=right;pointerEvents=1;rotation=-90;" parent="1" vertex="1">
          <mxGeometry x="206.25" y="1651.75" width="50" height="429.5" as="geometry" />
        </mxCell>
        <mxCell id="-K4Pnvhbvs1OvobaiyWg-130" value="&lt;b&gt;&lt;font style=&quot;font-size: 27px;&quot;&gt;Database&lt;/font&gt;&lt;/b&gt;" style="text;html=1;strokeColor=none;fillColor=none;align=center;verticalAlign=middle;whiteSpace=wrap;rounded=0;" parent="1" vertex="1">
          <mxGeometry x="135" y="1909" width="226" height="108" as="geometry" />
        </mxCell>
        <mxCell id="-K4Pnvhbvs1OvobaiyWg-131" value="" style="strokeWidth=2;html=1;shape=mxgraph.flowchart.annotation_2;align=left;labelPosition=right;pointerEvents=1;rotation=-90;" parent="1" vertex="1">
          <mxGeometry x="2154" y="1752.25" width="50" height="338.5" as="geometry" />
        </mxCell>
        <mxCell id="-K4Pnvhbvs1OvobaiyWg-132" value="&lt;b&gt;&lt;font style=&quot;font-size: 27px;&quot;&gt;gateway&lt;/font&gt;&lt;/b&gt;" style="text;html=1;strokeColor=none;fillColor=none;align=center;verticalAlign=middle;whiteSpace=wrap;rounded=0;" parent="1" vertex="1">
          <mxGeometry x="2064" y="1972" width="226" height="108" as="geometry" />
        </mxCell>
      </root>
    </mxGraphModel>
  </diagram>
</mxfile>
